ISO-10303-21;
HEADER;
FILE_DESCRIPTION(('STEP AP214'),'1');
FILE_NAME('Agrafe.stp','2025-11-21T14:13:42',(' '),(' '),'Spatial InterOp 3D',' ',' ');
FILE_SCHEMA(('AUTOMOTIVE_DESIGN { 1 0 10303 214 1 1 1 1 }'));
ENDSEC;
DATA;
#1=MECHANICAL_DESIGN_GEOMETRIC_PRESENTATION_REPRESENTATION(' ',(#10),#6);
#2=PRODUCT_DEFINITION_CONTEXT('',#11,'design');
#3=APPLICATION_PROTOCOL_DEFINITION('INTERNATIONAL STANDARD','automotive_design',1994,#11);
#4=PRODUCT_CATEGORY_RELATIONSHIP('NONE','NONE',#12,#13);
#5=SHAPE_DEFINITION_REPRESENTATION(#14,#15);
#6= (GEOMETRIC_REPRESENTATION_CONTEXT(3)GLOBAL_UNCERTAINTY_ASSIGNED_CONTEXT((#18))GLOBAL_UNIT_ASSIGNED_CONTEXT((#20,#21,#22))REPRESENTATION_CONTEXT('NONE','WORKSPACE'));
#10=STYLED_ITEM('',(#24),#25);
#11=APPLICATION_CONTEXT(' ');
#12=PRODUCT_CATEGORY('part','NONE');
#13=PRODUCT_RELATED_PRODUCT_CATEGORY('detail',' ',(#26));
#14=PRODUCT_DEFINITION_SHAPE('NONE','NONE',#27);
#15=ADVANCED_BREP_SHAPE_REPRESENTATION('Corps',(#25,#28),#6);
#18=UNCERTAINTY_MEASURE_WITH_UNIT(LENGTH_MEASURE(1.0E-08),#20,'','');
#20= (CONVERSION_BASED_UNIT('METRE',#31)LENGTH_UNIT()NAMED_UNIT(#34));
#21= (NAMED_UNIT(#36)PLANE_ANGLE_UNIT()SI_UNIT($,.RADIAN.));
#22= (NAMED_UNIT(#36)SOLID_ANGLE_UNIT()SI_UNIT($,.STERADIAN.));
#24=PRESENTATION_STYLE_ASSIGNMENT((#42));
#25=MANIFOLD_SOLID_BREP('Corps',#43);
#26=PRODUCT('Corps','','PART--DESC',(#44));
#27=PRODUCT_DEFINITION('','NONE',#45,#2);
#28=AXIS2_PLACEMENT_3D('',#46,#47,#48);
#31=LENGTH_MEASURE_WITH_UNIT(LENGTH_MEASURE(1.0),#49);
#34=DIMENSIONAL_EXPONENTS(1.0,0.0,0.0,0.0,0.0,0.0,0.0);
#36=DIMENSIONAL_EXPONENTS(0.0,0.0,0.0,0.0,0.0,0.0,0.0);
#42=SURFACE_STYLE_USAGE(.BOTH.,#50);
#43=CLOSED_SHELL('',(#51,#52,#53,#54,#55,#56,#57,#58,#59,#60,#61,#62,#63,#64,#65,#66,#67,#68,#69,#70,#71,#72,#73,#74,#75,#76));
#44=PRODUCT_CONTEXT('',#11,'mechanical');
#45=PRODUCT_DEFINITION_FORMATION_WITH_SPECIFIED_SOURCE(' ','NONE',#26,.NOT_KNOWN.);
#46=CARTESIAN_POINT('',(0.0,0.0,0.0));
#47=DIRECTION('',(0.0,0.0,1.0));
#48=DIRECTION('',(1.0,0.0,0.0));
#49= (NAMED_UNIT(#34)LENGTH_UNIT()SI_UNIT($,.METRE.));
#50=SURFACE_SIDE_STYLE('',(#78));
#51=ADVANCED_FACE('819:431124',(#79),#80,.F.);
#52=ADVANCED_FACE('819:431118',(#81),#82,.F.);
#53=ADVANCED_FACE('819:431106',(#83),#84,.T.);
#54=ADVANCED_FACE('819:431100',(#85),#86,.T.);
#55=ADVANCED_FACE('819:431094',(#87),#88,.T.);
#56=ADVANCED_FACE('819:431088',(#89),#90,.T.);
#57=ADVANCED_FACE('819:431082',(#91),#92,.F.);
#58=ADVANCED_FACE('819:431085',(#93),#94,.T.);
#59=ADVANCED_FACE('819:431088',(#95),#96,.T.);
#60=ADVANCED_FACE('819:431091',(#97),#98,.T.);
#61=ADVANCED_FACE('819:431094',(#99),#100,.T.);
#62=ADVANCED_FACE('819:431097',(#101),#102,.T.);
#63=ADVANCED_FACE('819:431100',(#103),#104,.T.);
#64=ADVANCED_FACE('819:431103',(#105),#106,.T.);
#65=ADVANCED_FACE('819:431106',(#107),#108,.T.);
#66=ADVANCED_FACE('819:431109',(#109),#110,.T.);
#67=ADVANCED_FACE('819:431112',(#111),#112,.T.);
#68=ADVANCED_FACE('819:431115',(#113),#114,.T.);
#69=ADVANCED_FACE('819:431118',(#115),#116,.F.);
#70=ADVANCED_FACE('819:431121',(#117),#118,.T.);
#71=ADVANCED_FACE('819:431124',(#119),#120,.F.);
#72=ADVANCED_FACE('819:431127',(#121),#122,.T.);
#73=ADVANCED_FACE('819:431130',(#123),#124,.F.);
#74=ADVANCED_FACE('819:431133',(#125),#126,.F.);
#75=ADVANCED_FACE('819:431136',(#127),#128,.T.);
#76=ADVANCED_FACE('819:431139',(#129),#130,.T.);
#78=SURFACE_STYLE_FILL_AREA(#131);
#79=FACE_OUTER_BOUND('',#132,.T.);
#80=CYLINDRICAL_SURFACE('',#133,0.002);
#81=FACE_OUTER_BOUND('',#134,.T.);
#82=CYLINDRICAL_SURFACE('',#135,0.002);
#83=FACE_OUTER_BOUND('',#136,.T.);
#84=CYLINDRICAL_SURFACE('',#137,0.002);
#85=FACE_OUTER_BOUND('',#138,.T.);
#86=CYLINDRICAL_SURFACE('',#139,0.004);
#87=FACE_OUTER_BOUND('',#140,.T.);
#88=CYLINDRICAL_SURFACE('',#141,0.004);
#89=FACE_OUTER_BOUND('',#142,.T.);
#90=CYLINDRICAL_SURFACE('',#143,0.002);
#91=FACE_OUTER_BOUND('',#144,.T.);
#92=PLANE('',#145);
#93=FACE_OUTER_BOUND('',#146,.T.);
#94=PLANE('',#147);
#95=FACE_OUTER_BOUND('',#148,.T.);
#96=CYLINDRICAL_SURFACE('',#149,0.002);
#97=FACE_OUTER_BOUND('',#150,.T.);
#98=PLANE('',#151);
#99=FACE_OUTER_BOUND('',#152,.T.);
#100=CYLINDRICAL_SURFACE('',#153,0.004);
#101=FACE_OUTER_BOUND('',#154,.T.);
#102=PLANE('',#155);
#103=FACE_OUTER_BOUND('',#156,.T.);
#104=CYLINDRICAL_SURFACE('',#157,0.004);
#105=FACE_OUTER_BOUND('',#158,.T.);
#106=PLANE('',#159);
#107=FACE_OUTER_BOUND('',#160,.T.);
#108=CYLINDRICAL_SURFACE('',#161,0.002);
#109=FACE_OUTER_BOUND('',#162,.T.);
#110=PLANE('',#163);
#111=FACE_OUTER_BOUND('',#164,.T.);
#112=PLANE('',#165);
#113=FACE_OUTER_BOUND('',#166,.T.);
#114=PLANE('',#167);
#115=FACE_OUTER_BOUND('',#168,.T.);
#116=CYLINDRICAL_SURFACE('',#169,0.002);
#117=FACE_OUTER_BOUND('',#170,.T.);
#118=PLANE('',#171);
#119=FACE_OUTER_BOUND('',#172,.T.);
#120=CYLINDRICAL_SURFACE('',#173,0.002);
#121=FACE_OUTER_BOUND('',#174,.T.);
#122=PLANE('',#175);
#123=FACE_OUTER_BOUND('',#176,.T.);
#124=PLANE('',#177);
#125=FACE_OUTER_BOUND('',#178,.T.);
#126=PLANE('',#179);
#127=FACE_OUTER_BOUND('',#180,.T.);
#128=PLANE('',#181);
#129=FACE_OUTER_BOUND('',#182,.T.);
#130=PLANE('',#183);
#131=FILL_AREA_STYLE('',(#184));
#132=EDGE_LOOP('',(#185,#186,#187,#188));
#133=AXIS2_PLACEMENT_3D('',#189,#190,#191);
#134=EDGE_LOOP('',(#192,#193,#194,#195));
#135=AXIS2_PLACEMENT_3D('',#196,#197,#198);
#136=EDGE_LOOP('',(#199,#200,#201,#202));
#137=AXIS2_PLACEMENT_3D('',#203,#204,#205);
#138=EDGE_LOOP('',(#206,#207,#208,#209));
#139=AXIS2_PLACEMENT_3D('',#210,#211,#212);
#140=EDGE_LOOP('',(#213,#214,#215,#216));
#141=AXIS2_PLACEMENT_3D('',#217,#218,#219);
#142=EDGE_LOOP('',(#220,#221,#222,#223));
#143=AXIS2_PLACEMENT_3D('',#224,#225,#226);
#144=EDGE_LOOP('',(#227,#228,#229,#230));
#145=AXIS2_PLACEMENT_3D('',#231,#232,#233);
#146=EDGE_LOOP('',(#234,#235,#236,#237));
#147=AXIS2_PLACEMENT_3D('',#238,#239,#240);
#148=EDGE_LOOP('',(#241,#242,#243,#244));
#149=AXIS2_PLACEMENT_3D('',#245,#246,#247);
#150=EDGE_LOOP('',(#248,#249,#250,#251));
#151=AXIS2_PLACEMENT_3D('',#252,#253,#254);
#152=EDGE_LOOP('',(#255,#256,#257,#258));
#153=AXIS2_PLACEMENT_3D('',#259,#260,#261);
#154=EDGE_LOOP('',(#262,#263,#264,#265));
#155=AXIS2_PLACEMENT_3D('',#266,#267,#268);
#156=EDGE_LOOP('',(#269,#270,#271,#272));
#157=AXIS2_PLACEMENT_3D('',#273,#274,#275);
#158=EDGE_LOOP('',(#276,#277,#278,#279));
#159=AXIS2_PLACEMENT_3D('',#280,#281,#282);
#160=EDGE_LOOP('',(#283,#284,#285,#286));
#161=AXIS2_PLACEMENT_3D('',#287,#288,#289);
#162=EDGE_LOOP('',(#290,#291,#292,#293));
#163=AXIS2_PLACEMENT_3D('',#294,#295,#296);
#164=EDGE_LOOP('',(#297,#298,#299,#300));
#165=AXIS2_PLACEMENT_3D('',#301,#302,#303);
#166=EDGE_LOOP('',(#304,#305,#306,#307));
#167=AXIS2_PLACEMENT_3D('',#308,#309,#310);
#168=EDGE_LOOP('',(#311,#312,#313,#314));
#169=AXIS2_PLACEMENT_3D('',#315,#316,#317);
#170=EDGE_LOOP('',(#318,#319,#320,#321));
#171=AXIS2_PLACEMENT_3D('',#322,#323,#324);
#172=EDGE_LOOP('',(#325,#326,#327,#328));
#173=AXIS2_PLACEMENT_3D('',#329,#330,#331);
#174=EDGE_LOOP('',(#332,#333,#334,#335));
#175=AXIS2_PLACEMENT_3D('',#336,#337,#338);
#176=EDGE_LOOP('',(#339,#340,#341,#342));
#177=AXIS2_PLACEMENT_3D('',#343,#344,#345);
#178=EDGE_LOOP('',(#346,#347,#348,#349,#350,#351,#352,#353,#354,#355,#356,#357,#358,#359,#360,#361,#362,#363,#364,#365,#366,#367,#368,#369));
#179=AXIS2_PLACEMENT_3D('',#370,#371,#372);
#180=EDGE_LOOP('',(#373,#374,#375,#376));
#181=AXIS2_PLACEMENT_3D('',#377,#378,#379);
#182=EDGE_LOOP('',(#380,#381,#382,#383,#384,#385,#386,#387,#388,#389,#390,#391,#392,#393,#394,#395,#396,#397,#398,#399,#400,#401,#402,#403));
#183=AXIS2_PLACEMENT_3D('',#404,#405,#406);
#184=FILL_AREA_STYLE_COLOUR('',#407);
#185=ORIENTED_EDGE('',*,*,#408,.F.);
#186=ORIENTED_EDGE('',*,*,#409,.T.);
#187=ORIENTED_EDGE('',*,*,#410,.T.);
#188=ORIENTED_EDGE('',*,*,#411,.T.);
#189=CARTESIAN_POINT('',(-0.076244999999991,0.0159383430485809,0.00976727473346712));
#190=DIRECTION('',(-3.76158192263132E-31,1.0,3.8372083288607E-15));
#191=DIRECTION('',(-0.707106781186548,2.7133160301629E-15,-0.707106781186547));
#192=ORIENTED_EDGE('',*,*,#412,.F.);
#193=ORIENTED_EDGE('',*,*,#413,.T.);
#194=ORIENTED_EDGE('',*,*,#414,.T.);
#195=ORIENTED_EDGE('',*,*,#415,.T.);
#196=CARTESIAN_POINT('',(-0.076244999999991,0.0159383430485809,0.023859651772553));
#197=DIRECTION('',(0.0,1.0,3.8372083288607E-15));
#198=DIRECTION('',(-0.707106781186547,-2.7133160301629E-15,0.707106781186548));
#199=ORIENTED_EDGE('',*,*,#416,.F.);
#200=ORIENTED_EDGE('',*,*,#417,.T.);
#201=ORIENTED_EDGE('',*,*,#418,.T.);
#202=ORIENTED_EDGE('',*,*,#419,.T.);
#203=CARTESIAN_POINT('',(-0.056494999999991,0.0159383430485809,0.025859651772553));
#204=DIRECTION('',(3.76158192263132E-31,-1.0,-3.8372083288607E-15));
#205=DIRECTION('',(0.707106781186547,-2.7133160301629E-15,0.707106781186547));
#206=ORIENTED_EDGE('',*,*,#420,.F.);
#207=ORIENTED_EDGE('',*,*,#421,.T.);
#208=ORIENTED_EDGE('',*,*,#422,.T.);
#209=ORIENTED_EDGE('',*,*,#423,.T.);
#210=CARTESIAN_POINT('',(-0.076244999999991,0.0159383430485809,0.023859651772553));
#211=DIRECTION('',(0.0,-1.0,-3.8372083288607E-15));
#212=DIRECTION('',(-0.707106781186548,-2.7133160301629E-15,0.707106781186547));
#213=ORIENTED_EDGE('',*,*,#424,.F.);
#214=ORIENTED_EDGE('',*,*,#425,.T.);
#215=ORIENTED_EDGE('',*,*,#426,.T.);
#216=ORIENTED_EDGE('',*,*,#427,.T.);
#217=CARTESIAN_POINT('',(-0.076244999999991,0.0159383430485809,0.00976727473346712));
#218=DIRECTION('',(3.76158192263132E-31,-1.0,-3.8372083288607E-15));
#219=DIRECTION('',(-0.707106781186548,2.7133160301629E-15,-0.707106781186547));
#220=ORIENTED_EDGE('',*,*,#428,.F.);
#221=ORIENTED_EDGE('',*,*,#429,.T.);
#222=ORIENTED_EDGE('',*,*,#430,.T.);
#223=ORIENTED_EDGE('',*,*,#431,.T.);
#224=CARTESIAN_POINT('',(-0.056494999999991,0.015938343048581,0.00776727473346712));
#225=DIRECTION('',(0.0,-1.0,-3.8372083288607E-15));
#226=DIRECTION('',(0.707106781186548,2.7133160301629E-15,-0.707106781186547));
#227=ORIENTED_EDGE('',*,*,#432,.F.);
#228=ORIENTED_EDGE('',*,*,#433,.F.);
#229=ORIENTED_EDGE('',*,*,#434,.F.);
#230=ORIENTED_EDGE('',*,*,#435,.F.);
#231=CARTESIAN_POINT('',(-0.02942,0.0153364807508658,0.00774727473346712));
#232=DIRECTION('',(-2.8327492261615E-16,3.8372083288607E-15,-1.0));
#233=DIRECTION('',(2.46519032881566E-32,1.0,3.8372083288607E-15));
#234=ORIENTED_EDGE('',*,*,#436,.T.);
#235=ORIENTED_EDGE('',*,*,#430,.F.);
#236=ORIENTED_EDGE('',*,*,#437,.T.);
#237=ORIENTED_EDGE('',*,*,#438,.F.);
#238=CARTESIAN_POINT('',(-0.055869999999991,0.015938343048581,0.00851727473346712));
#239=DIRECTION('',(0.478852130680573,-3.36709826687098E-15,0.877895572914384));
#240=DIRECTION('',(-0.877895572914384,-1.86482773667507E-15,0.478852130680573));
#241=ORIENTED_EDGE('',*,*,#428,.T.);
#242=ORIENTED_EDGE('',*,*,#439,.T.);
#243=ORIENTED_EDGE('',*,*,#440,.T.);
#244=ORIENTED_EDGE('',*,*,#441,.T.);
#245=CARTESIAN_POINT('',(-0.056494999999991,0.015938343048581,0.00776727473346712));
#246=DIRECTION('',(0.0,-1.0,-3.8372083288607E-15));
#247=DIRECTION('',(0.707106781186548,2.7133160301629E-15,-0.707106781186547));
#248=ORIENTED_EDGE('',*,*,#442,.T.);
#249=ORIENTED_EDGE('',*,*,#440,.F.);
#250=ORIENTED_EDGE('',*,*,#443,.T.);
#251=ORIENTED_EDGE('',*,*,#426,.F.);
#252=CARTESIAN_POINT('',(-0.065539999999982,0.015938343048581,0.00576727473346712));
#253=DIRECTION('',(-1.020425574104E-16,3.8372083288607E-15,-1.0));
#254=DIRECTION('',(1.0,3.71319293277859E-31,-1.020425574104E-16));
#255=ORIENTED_EDGE('',*,*,#424,.T.);
#256=ORIENTED_EDGE('',*,*,#444,.T.);
#257=ORIENTED_EDGE('',*,*,#445,.T.);
#258=ORIENTED_EDGE('',*,*,#446,.T.);
#259=CARTESIAN_POINT('',(-0.076244999999991,0.0159383430485809,0.00976727473346712));
#260=DIRECTION('',(3.76158192263132E-31,-1.0,-3.8372083288607E-15));
#261=DIRECTION('',(-0.707106781186548,2.7133160301629E-15,-0.707106781186547));
#262=ORIENTED_EDGE('',*,*,#447,.T.);
#263=ORIENTED_EDGE('',*,*,#445,.F.);
#264=ORIENTED_EDGE('',*,*,#448,.T.);
#265=ORIENTED_EDGE('',*,*,#422,.F.);
#266=CARTESIAN_POINT('',(-0.080244999999991,0.0159383430485809,0.017859651772553));
#267=DIRECTION('',(-1.0,-2.46519032881564E-32,-4.26983489983616E-32));
#268=DIRECTION('',(4.26983489983615E-32,3.8372083288607E-15,-1.0));
#269=ORIENTED_EDGE('',*,*,#420,.T.);
#270=ORIENTED_EDGE('',*,*,#449,.T.);
#271=ORIENTED_EDGE('',*,*,#450,.T.);
#272=ORIENTED_EDGE('',*,*,#451,.T.);
#273=CARTESIAN_POINT('',(-0.076244999999991,0.0159383430485809,0.023859651772553));
#274=DIRECTION('',(0.0,-1.0,-3.8372083288607E-15));
#275=DIRECTION('',(-0.707106781186548,-2.7133160301629E-15,0.707106781186547));
#276=ORIENTED_EDGE('',*,*,#452,.T.);
#277=ORIENTED_EDGE('',*,*,#418,.F.);
#278=ORIENTED_EDGE('',*,*,#453,.T.);
#279=ORIENTED_EDGE('',*,*,#450,.F.);
#280=CARTESIAN_POINT('',(-0.065539999999982,0.0159383430485809,0.027859651772553));
#281=DIRECTION('',(-4.26983489983615E-32,-3.8372083288607E-15,1.0));
#282=DIRECTION('',(-1.0,2.46519032881568E-32,-4.26983489983614E-32));
#283=ORIENTED_EDGE('',*,*,#416,.T.);
#284=ORIENTED_EDGE('',*,*,#454,.T.);
#285=ORIENTED_EDGE('',*,*,#455,.F.);
#286=ORIENTED_EDGE('',*,*,#456,.T.);
#287=CARTESIAN_POINT('',(-0.056494999999991,0.0159383430485809,0.025859651772553));
#288=DIRECTION('',(3.76158192263132E-31,-1.0,-3.8372083288607E-15));
#289=DIRECTION('',(0.707106781186547,-2.7133160301629E-15,0.707106781186547));
#290=ORIENTED_EDGE('',*,*,#457,.T.);
#291=ORIENTED_EDGE('',*,*,#458,.F.);
#292=ORIENTED_EDGE('',*,*,#459,.T.);
#293=ORIENTED_EDGE('',*,*,#455,.T.);
#294=CARTESIAN_POINT('',(-0.055869999999991,0.0159383430485809,0.025109651772553));
#295=DIRECTION('',(0.478852130680574,3.37750660772684E-15,-0.877895572914384));
#296=DIRECTION('',(0.877895572914384,-1.82319437325162E-15,0.478852130680574));
#297=ORIENTED_EDGE('',*,*,#460,.T.);
#298=ORIENTED_EDGE('',*,*,#458,.T.);
#299=ORIENTED_EDGE('',*,*,#461,.T.);
#300=ORIENTED_EDGE('',*,*,#462,.F.);
#301=CARTESIAN_POINT('',(-0.057244999999991,0.0159383430485809,0.025109651772553));
#302=DIRECTION('',(-1.0,-2.46519032881564E-32,-4.26983489983616E-32));
#303=DIRECTION('',(4.26983489983615E-32,3.8372083288607E-15,-1.0));
#304=ORIENTED_EDGE('',*,*,#463,.T.);
#305=ORIENTED_EDGE('',*,*,#462,.T.);
#306=ORIENTED_EDGE('',*,*,#464,.T.);
#307=ORIENTED_EDGE('',*,*,#465,.F.);
#308=CARTESIAN_POINT('',(-0.065914999999982,0.0159383430485809,0.025859651772553));
#309=DIRECTION('',(4.26983489983615E-32,3.8372083288607E-15,-1.0));
#310=DIRECTION('',(1.0,-2.46519032881568E-32,4.26983489983614E-32));
#311=ORIENTED_EDGE('',*,*,#412,.T.);
#312=ORIENTED_EDGE('',*,*,#466,.T.);
#313=ORIENTED_EDGE('',*,*,#465,.T.);
#314=ORIENTED_EDGE('',*,*,#467,.T.);
#315=CARTESIAN_POINT('',(-0.076244999999991,0.0159383430485809,0.023859651772553));
#316=DIRECTION('',(0.0,1.0,3.8372083288607E-15));
#317=DIRECTION('',(-0.707106781186547,-2.7133160301629E-15,0.707106781186548));
#318=ORIENTED_EDGE('',*,*,#468,.T.);
#319=ORIENTED_EDGE('',*,*,#469,.F.);
#320=ORIENTED_EDGE('',*,*,#470,.T.);
#321=ORIENTED_EDGE('',*,*,#414,.F.);
#322=CARTESIAN_POINT('',(-0.078244999999991,0.0159383430485809,0.017859651772553));
#323=DIRECTION('',(1.0,2.46519032881564E-32,4.26983489983616E-32));
#324=DIRECTION('',(-4.26983489983615E-32,-3.8372083288607E-15,1.0));
#325=ORIENTED_EDGE('',*,*,#408,.T.);
#326=ORIENTED_EDGE('',*,*,#471,.T.);
#327=ORIENTED_EDGE('',*,*,#469,.T.);
#328=ORIENTED_EDGE('',*,*,#472,.T.);
#329=CARTESIAN_POINT('',(-0.076244999999991,0.0159383430485809,0.00976727473346712));
#330=DIRECTION('',(-3.76158192263132E-31,1.0,3.8372083288607E-15));
#331=DIRECTION('',(-0.707106781186548,2.7133160301629E-15,-0.707106781186547));
#332=ORIENTED_EDGE('',*,*,#473,.T.);
#333=ORIENTED_EDGE('',*,*,#474,.T.);
#334=ORIENTED_EDGE('',*,*,#410,.F.);
#335=ORIENTED_EDGE('',*,*,#475,.T.);
#336=CARTESIAN_POINT('',(-0.065914999999982,0.015938343048581,0.00776727473346712));
#337=DIRECTION('',(-4.26983489983615E-32,-3.8372083288607E-15,1.0));
#338=DIRECTION('',(-1.0,2.46519032881568E-32,-4.26983489983614E-32));
#339=ORIENTED_EDGE('',*,*,#476,.F.);
#340=ORIENTED_EDGE('',*,*,#435,.T.);
#341=ORIENTED_EDGE('',*,*,#477,.F.);
#342=ORIENTED_EDGE('',*,*,#473,.F.);
#343=CARTESIAN_POINT('',(-0.064744999999991,0.0226224118997234,0.00776727473346715));
#344=DIRECTION('',(-1.0,1.59565718992603E-15,2.83274922616156E-16));
#345=DIRECTION('',(1.59565718992603E-15,1.0,3.8372083288607E-15));
#346=ORIENTED_EDGE('',*,*,#478,.F.);
#347=ORIENTED_EDGE('',*,*,#437,.F.);
#348=ORIENTED_EDGE('',*,*,#429,.F.);
#349=ORIENTED_EDGE('',*,*,#441,.F.);
#350=ORIENTED_EDGE('',*,*,#442,.F.);
#351=ORIENTED_EDGE('',*,*,#425,.F.);
#352=ORIENTED_EDGE('',*,*,#446,.F.);
#353=ORIENTED_EDGE('',*,*,#447,.F.);
#354=ORIENTED_EDGE('',*,*,#421,.F.);
#355=ORIENTED_EDGE('',*,*,#451,.F.);
#356=ORIENTED_EDGE('',*,*,#453,.F.);
#357=ORIENTED_EDGE('',*,*,#417,.F.);
#358=ORIENTED_EDGE('',*,*,#456,.F.);
#359=ORIENTED_EDGE('',*,*,#459,.F.);
#360=ORIENTED_EDGE('',*,*,#460,.F.);
#361=ORIENTED_EDGE('',*,*,#463,.F.);
#362=ORIENTED_EDGE('',*,*,#466,.F.);
#363=ORIENTED_EDGE('',*,*,#415,.F.);
#364=ORIENTED_EDGE('',*,*,#470,.F.);
#365=ORIENTED_EDGE('',*,*,#471,.F.);
#366=ORIENTED_EDGE('',*,*,#411,.F.);
#367=ORIENTED_EDGE('',*,*,#474,.F.);
#368=ORIENTED_EDGE('',*,*,#477,.T.);
#369=ORIENTED_EDGE('',*,*,#434,.T.);
#370=CARTESIAN_POINT('',(-0.049039999999982,0.0199083430485809,0.017859651772553));
#371=DIRECTION('',(2.46519032881566E-32,-1.0,-3.8372083288607E-15));
#372=DIRECTION('',(4.26983489983615E-32,3.8372083288607E-15,-1.0));
#373=ORIENTED_EDGE('',*,*,#479,.F.);
#374=ORIENTED_EDGE('',*,*,#438,.T.);
#375=ORIENTED_EDGE('',*,*,#478,.T.);
#376=ORIENTED_EDGE('',*,*,#433,.T.);
#377=CARTESIAN_POINT('',(-0.0572449999999909,0.0153364807508658,0.0257672747334671));
#378=DIRECTION('',(-1.0,1.59565718992603E-15,2.83274922616156E-16));
#379=DIRECTION('',(-1.59565718992603E-15,-1.0,-3.8997396891588E-15));
#380=ORIENTED_EDGE('',*,*,#479,.T.);
#381=ORIENTED_EDGE('',*,*,#432,.T.);
#382=ORIENTED_EDGE('',*,*,#476,.T.);
#383=ORIENTED_EDGE('',*,*,#475,.F.);
#384=ORIENTED_EDGE('',*,*,#409,.F.);
#385=ORIENTED_EDGE('',*,*,#472,.F.);
#386=ORIENTED_EDGE('',*,*,#468,.F.);
#387=ORIENTED_EDGE('',*,*,#413,.F.);
#388=ORIENTED_EDGE('',*,*,#467,.F.);
#389=ORIENTED_EDGE('',*,*,#464,.F.);
#390=ORIENTED_EDGE('',*,*,#461,.F.);
#391=ORIENTED_EDGE('',*,*,#457,.F.);
#392=ORIENTED_EDGE('',*,*,#454,.F.);
#393=ORIENTED_EDGE('',*,*,#419,.F.);
#394=ORIENTED_EDGE('',*,*,#452,.F.);
#395=ORIENTED_EDGE('',*,*,#449,.F.);
#396=ORIENTED_EDGE('',*,*,#423,.F.);
#397=ORIENTED_EDGE('',*,*,#448,.F.);
#398=ORIENTED_EDGE('',*,*,#444,.F.);
#399=ORIENTED_EDGE('',*,*,#427,.F.);
#400=ORIENTED_EDGE('',*,*,#443,.F.);
#401=ORIENTED_EDGE('',*,*,#439,.F.);
#402=ORIENTED_EDGE('',*,*,#431,.F.);
#403=ORIENTED_EDGE('',*,*,#436,.F.);
#404=CARTESIAN_POINT('',(-0.049039999999982,0.0109083430485809,0.017859651772553));
#405=DIRECTION('',(2.46519032881566E-32,-1.0,-3.8372083288607E-15));
#406=DIRECTION('',(4.26983489983615E-32,3.8372083288607E-15,-1.0));
#407=COLOUR_RGB('',0.560784339904785,0.560784339904785,0.686274528503418);
#408=EDGE_CURVE('',#480,#481,#482,.T.);
#409=EDGE_CURVE('819:431274',#480,#483,#484,.T.);
#410=EDGE_CURVE('819:431277',#483,#485,#486,.T.);
#411=EDGE_CURVE('819:431280',#485,#481,#487,.T.);
#412=EDGE_CURVE('',#488,#489,#490,.T.);
#413=EDGE_CURVE('819:431256',#488,#491,#492,.T.);
#414=EDGE_CURVE('819:431259',#491,#493,#494,.T.);
#415=EDGE_CURVE('819:431262',#493,#489,#495,.T.);
#416=EDGE_CURVE('',#496,#497,#498,.T.);
#417=EDGE_CURVE('819:431226',#496,#499,#500,.T.);
#418=EDGE_CURVE('819:431214',#499,#501,#502,.T.);
#419=EDGE_CURVE('819:431220',#501,#497,#503,.T.);
#420=EDGE_CURVE('',#504,#505,#506,.T.);
#421=EDGE_CURVE('819:431208',#504,#507,#508,.T.);
#422=EDGE_CURVE('819:431199',#507,#509,#510,.T.);
#423=EDGE_CURVE('819:431202',#509,#505,#511,.T.);
#424=EDGE_CURVE('',#512,#513,#514,.T.);
#425=EDGE_CURVE('819:431190',#512,#515,#516,.T.);
#426=EDGE_CURVE('819:431181',#515,#517,#518,.T.);
#427=EDGE_CURVE('819:431184',#517,#513,#519,.T.);
#428=EDGE_CURVE('',#520,#521,#522,.T.);
#429=EDGE_CURVE('819:431172',#520,#523,#524,.T.);
#430=EDGE_CURVE('819:431157',#523,#525,#526,.T.);
#431=EDGE_CURVE('819:431166',#525,#521,#527,.T.);
#432=EDGE_CURVE('819:431142',#528,#529,#530,.T.);
#433=EDGE_CURVE('819:431145',#531,#528,#532,.F.);
#434=EDGE_CURVE('819:431148',#533,#531,#534,.T.);
#435=EDGE_CURVE('819:431151',#529,#533,#535,.F.);
#436=EDGE_CURVE('819:431154',#536,#525,#537,.F.);
#437=EDGE_CURVE('819:431160',#523,#538,#539,.T.);
#438=EDGE_CURVE('819:431163',#536,#538,#540,.F.);
#439=EDGE_CURVE('819:431166',#521,#541,#542,.T.);
#440=EDGE_CURVE('819:431169',#541,#543,#544,.T.);
#441=EDGE_CURVE('819:431172',#543,#520,#545,.T.);
#442=EDGE_CURVE('819:431175',#515,#543,#546,.T.);
#443=EDGE_CURVE('819:431178',#541,#517,#547,.F.);
#444=EDGE_CURVE('819:431184',#513,#548,#549,.T.);
#445=EDGE_CURVE('819:431187',#548,#550,#551,.T.);
#446=EDGE_CURVE('819:431190',#550,#512,#552,.T.);
#447=EDGE_CURVE('819:431193',#507,#550,#553,.F.);
#448=EDGE_CURVE('819:431196',#548,#509,#554,.T.);
#449=EDGE_CURVE('819:431202',#505,#555,#556,.T.);
#450=EDGE_CURVE('819:431205',#555,#557,#558,.T.);
#451=EDGE_CURVE('819:431208',#557,#504,#559,.T.);
#452=EDGE_CURVE('819:431211',#555,#501,#560,.F.);
#453=EDGE_CURVE('819:431217',#499,#557,#561,.T.);
#454=EDGE_CURVE('819:431220',#497,#562,#563,.T.);
#455=EDGE_CURVE('819:431223',#564,#562,#565,.T.);
#456=EDGE_CURVE('819:431226',#564,#496,#566,.T.);
#457=EDGE_CURVE('819:431229',#562,#567,#568,.F.);
#458=EDGE_CURVE('819:431232',#569,#567,#570,.T.);
#459=EDGE_CURVE('819:431235',#569,#564,#571,.T.);
#460=EDGE_CURVE('819:431238',#572,#569,#573,.T.);
#461=EDGE_CURVE('819:431241',#567,#574,#575,.T.);
#462=EDGE_CURVE('819:431244',#572,#574,#576,.T.);
#463=EDGE_CURVE('819:431247',#577,#572,#578,.T.);
#464=EDGE_CURVE('819:431250',#574,#579,#580,.F.);
#465=EDGE_CURVE('819:431253',#577,#579,#581,.T.);
#466=EDGE_CURVE('819:431262',#489,#577,#582,.T.);
#467=EDGE_CURVE('819:431256',#579,#488,#583,.T.);
#468=EDGE_CURVE('819:431265',#491,#584,#585,.T.);
#469=EDGE_CURVE('819:431268',#586,#584,#587,.T.);
#470=EDGE_CURVE('819:431271',#586,#493,#588,.F.);
#471=EDGE_CURVE('819:431280',#481,#586,#589,.T.);
#472=EDGE_CURVE('819:431274',#584,#480,#590,.T.);
#473=EDGE_CURVE('819:431283',#591,#592,#593,.F.);
#474=EDGE_CURVE('819:431286',#592,#485,#594,.T.);
#475=EDGE_CURVE('819:431289',#483,#591,#595,.F.);
#476=EDGE_CURVE('819:431292',#529,#591,#596,.T.);
#477=EDGE_CURVE('819:431295',#592,#533,#597,.T.);
#478=EDGE_CURVE('819:431298',#538,#531,#598,.T.);
#479=EDGE_CURVE('819:431301',#536,#528,#599,.T.);
#480=VERTEX_POINT('',#600);
#481=VERTEX_POINT('',#601);
#482=LINE('',#602,#603);
#483=VERTEX_POINT('',#604);
#484=CIRCLE('',#605,0.002);
#485=VERTEX_POINT('',#606);
#486=LINE('',#607,#608);
#487=CIRCLE('',#609,0.002);
#488=VERTEX_POINT('',#610);
#489=VERTEX_POINT('',#611);
#490=LINE('',#612,#613);
#491=VERTEX_POINT('',#614);
#492=CIRCLE('',#615,0.002);
#493=VERTEX_POINT('',#616);
#494=LINE('',#617,#618);
#495=CIRCLE('',#619,0.002);
#496=VERTEX_POINT('',#620);
#497=VERTEX_POINT('',#621);
#498=LINE('',#622,#623);
#499=VERTEX_POINT('',#624);
#500=CIRCLE('',#625,0.002);
#501=VERTEX_POINT('',#626);
#502=LINE('',#627,#628);
#503=CIRCLE('',#629,0.002);
#504=VERTEX_POINT('',#630);
#505=VERTEX_POINT('',#631);
#506=LINE('',#632,#633);
#507=VERTEX_POINT('',#634);
#508=CIRCLE('',#635,0.004);
#509=VERTEX_POINT('',#636);
#510=LINE('',#637,#638);
#511=CIRCLE('',#639,0.004);
#512=VERTEX_POINT('',#640);
#513=VERTEX_POINT('',#641);
#514=LINE('',#642,#643);
#515=VERTEX_POINT('',#644);
#516=CIRCLE('',#645,0.004);
#517=VERTEX_POINT('',#646);
#518=LINE('',#647,#648);
#519=CIRCLE('',#649,0.004);
#520=VERTEX_POINT('',#650);
#521=VERTEX_POINT('',#651);
#522=LINE('',#652,#653);
#523=VERTEX_POINT('',#654);
#524=CIRCLE('',#655,0.002);
#525=VERTEX_POINT('',#656);
#526=LINE('',#657,#658);
#527=CIRCLE('',#659,0.002);
#528=VERTEX_POINT('',#660);
#529=VERTEX_POINT('',#661);
#530=LINE('',#662,#663);
#531=VERTEX_POINT('',#664);
#532=LINE('',#665,#666);
#533=VERTEX_POINT('',#667);
#534=LINE('',#668,#669);
#535=LINE('',#670,#671);
#536=VERTEX_POINT('',#672);
#537=LINE('',#673,#674);
#538=VERTEX_POINT('',#675);
#539=LINE('',#676,#677);
#540=LINE('',#678,#679);
#541=VERTEX_POINT('',#680);
#542=CIRCLE('',#681,0.002);
#543=VERTEX_POINT('',#682);
#544=LINE('',#683,#684);
#545=CIRCLE('',#685,0.002);
#546=LINE('',#686,#687);
#547=LINE('',#688,#689);
#548=VERTEX_POINT('',#690);
#549=CIRCLE('',#691,0.004);
#550=VERTEX_POINT('',#692);
#551=LINE('',#693,#694);
#552=CIRCLE('',#695,0.004);
#553=LINE('',#696,#697);
#554=LINE('',#698,#699);
#555=VERTEX_POINT('',#700);
#556=CIRCLE('',#701,0.004);
#557=VERTEX_POINT('',#702);
#558=LINE('',#703,#704);
#559=CIRCLE('',#705,0.004);
#560=LINE('',#706,#707);
#561=LINE('',#708,#709);
#562=VERTEX_POINT('',#710);
#563=CIRCLE('',#711,0.002);
#564=VERTEX_POINT('',#712);
#565=LINE('',#713,#714);
#566=CIRCLE('',#715,0.002);
#567=VERTEX_POINT('',#716);
#568=LINE('',#717,#718);
#569=VERTEX_POINT('',#719);
#570=LINE('',#720,#721);
#571=LINE('',#722,#723);
#572=VERTEX_POINT('',#724);
#573=LINE('',#725,#726);
#574=VERTEX_POINT('',#727);
#575=LINE('',#728,#729);
#576=LINE('',#730,#731);
#577=VERTEX_POINT('',#732);
#578=LINE('',#733,#734);
#579=VERTEX_POINT('',#735);
#580=LINE('',#736,#737);
#581=LINE('',#738,#739);
#582=CIRCLE('',#740,0.002);
#583=CIRCLE('',#741,0.002);
#584=VERTEX_POINT('',#742);
#585=LINE('',#743,#744);
#586=VERTEX_POINT('',#745);
#587=LINE('',#746,#747);
#588=LINE('',#748,#749);
#589=CIRCLE('',#750,0.002);
#590=CIRCLE('',#751,0.002);
#591=VERTEX_POINT('',#752);
#592=VERTEX_POINT('',#753);
#593=LINE('',#754,#755);
#594=LINE('',#756,#757);
#595=LINE('',#758,#759);
#596=LINE('',#760,#761);
#597=LINE('',#762,#763);
#598=LINE('',#764,#765);
#599=LINE('',#766,#767);
#600=CARTESIAN_POINT('',(-0.0776592135623641,0.0109083430485809,0.008353061171094));
#601=CARTESIAN_POINT('',(-0.0776592135623641,0.0199083430485809,0.00835306117109403));
#602=CARTESIAN_POINT('',(-0.0776592135623641,0.015938343048581,0.00835306117109402));
#603=VECTOR('',#768,1.0);
#604=CARTESIAN_POINT('',(-0.076244999999991,0.0109083430485809,0.0077672747334671));
#605=AXIS2_PLACEMENT_3D('',#769,#770,#771);
#606=CARTESIAN_POINT('',(-0.076244999999991,0.0199083430485809,0.00776727473346713));
#607=CARTESIAN_POINT('',(-0.076244999999991,0.015938343048581,0.00776727473346712));
#608=VECTOR('',#772,1.0);
#609=AXIS2_PLACEMENT_3D('',#773,#774,#775);
#610=CARTESIAN_POINT('',(-0.0776592135623641,0.0109083430485809,0.0252738653349261));
#611=CARTESIAN_POINT('',(-0.0776592135623641,0.0199083430485809,0.0252738653349261));
#612=CARTESIAN_POINT('',(-0.0776592135623641,0.0159383430485809,0.0252738653349261));
#613=VECTOR('',#776,1.0);
#614=CARTESIAN_POINT('',(-0.078244999999991,0.0109083430485809,0.023859651772553));
#615=AXIS2_PLACEMENT_3D('',#777,#778,#779);
#616=CARTESIAN_POINT('',(-0.078244999999991,0.0199083430485809,0.023859651772553));
#617=CARTESIAN_POINT('',(-0.078244999999991,0.0159383430485809,0.023859651772553));
#618=VECTOR('',#780,1.0);
#619=AXIS2_PLACEMENT_3D('',#781,#782,#783);
#620=CARTESIAN_POINT('',(-0.0550807864376179,0.0199083430485809,0.0272738653349261));
#621=CARTESIAN_POINT('',(-0.0550807864376179,0.0109083430485809,0.0272738653349261));
#622=CARTESIAN_POINT('',(-0.0550807864376179,0.0159383430485809,0.0272738653349261));
#623=VECTOR('',#784,1.0);
#624=CARTESIAN_POINT('',(-0.056494999999991,0.0199083430485809,0.027859651772553));
#625=AXIS2_PLACEMENT_3D('',#785,#786,#787);
#626=CARTESIAN_POINT('',(-0.056494999999991,0.0109083430485809,0.027859651772553));
#627=CARTESIAN_POINT('',(-0.056494999999991,0.0159383430485809,0.027859651772553));
#628=VECTOR('',#788,1.0);
#629=AXIS2_PLACEMENT_3D('',#789,#790,#791);
#630=CARTESIAN_POINT('',(-0.0790734271247372,0.0199083430485809,0.0266880788972992));
#631=CARTESIAN_POINT('',(-0.0790734271247372,0.0109083430485809,0.0266880788972992));
#632=CARTESIAN_POINT('',(-0.0790734271247372,0.0159383430485809,0.0266880788972992));
#633=VECTOR('',#792,1.0);
#634=CARTESIAN_POINT('',(-0.080244999999991,0.0199083430485809,0.023859651772553));
#635=AXIS2_PLACEMENT_3D('',#793,#794,#795);
#636=CARTESIAN_POINT('',(-0.080244999999991,0.0109083430485809,0.023859651772553));
#637=CARTESIAN_POINT('',(-0.080244999999991,0.0159383430485809,0.023859651772553));
#638=VECTOR('',#796,1.0);
#639=AXIS2_PLACEMENT_3D('',#797,#798,#799);
#640=CARTESIAN_POINT('',(-0.0790734271247372,0.0199083430485809,0.00693884760872094));
#641=CARTESIAN_POINT('',(-0.0790734271247372,0.0109083430485809,0.00693884760872091));
#642=CARTESIAN_POINT('',(-0.0790734271247372,0.015938343048581,0.00693884760872093));
#643=VECTOR('',#800,1.0);
#644=CARTESIAN_POINT('',(-0.076244999999991,0.0199083430485809,0.00576727473346714));
#645=AXIS2_PLACEMENT_3D('',#801,#802,#803);
#646=CARTESIAN_POINT('',(-0.076244999999991,0.0109083430485809,0.0057672747334671));
#647=CARTESIAN_POINT('',(-0.076244999999991,0.015938343048581,0.00576727473346712));
#648=VECTOR('',#804,1.0);
#649=AXIS2_PLACEMENT_3D('',#805,#806,#807);
#650=CARTESIAN_POINT('',(-0.0550807864376179,0.0199083430485809,0.00635306117109404));
#651=CARTESIAN_POINT('',(-0.0550807864376179,0.0109083430485809,0.00635306117109401));
#652=CARTESIAN_POINT('',(-0.0550807864376179,0.015938343048581,0.00635306117109403));
#653=VECTOR('',#808,1.0);
#654=CARTESIAN_POINT('',(-0.054494999999991,0.0199083430485809,0.00776727473346713));
#655=AXIS2_PLACEMENT_3D('',#809,#810,#811);
#656=CARTESIAN_POINT('',(-0.054494999999991,0.0109083430485809,0.0077672747334671));
#657=CARTESIAN_POINT('',(-0.054494999999991,0.015938343048581,0.00776727473346712));
#658=VECTOR('',#812,1.0);
#659=AXIS2_PLACEMENT_3D('',#813,#814,#815);
#660=CARTESIAN_POINT('',(-0.057244999999991,0.0109083430485809,0.0077472747334671));
#661=CARTESIAN_POINT('',(-0.064744999999991,0.0109083430485809,0.00774727473346711));
#662=CARTESIAN_POINT('',(-0.039229999999991,0.0109083430485809,0.0077472747334671));
#663=VECTOR('',#816,1.0);
#664=CARTESIAN_POINT('',(-0.057244999999991,0.0199083430485809,0.00774727473346714));
#665=CARTESIAN_POINT('',(-0.057244999999991,0.0153364807508658,0.00774727473346712));
#666=VECTOR('',#817,1.0);
#667=CARTESIAN_POINT('',(-0.064744999999991,0.0199083430485809,0.00774727473346714));
#668=CARTESIAN_POINT('',(-0.039229999999991,0.0199083430485809,0.00774727473346714));
#669=VECTOR('',#818,1.0);
#670=CARTESIAN_POINT('',(-0.064744999999991,0.0153364807508659,0.00774727473346713));
#671=VECTOR('',#819,1.0);
#672=CARTESIAN_POINT('',(-0.057244999999991,0.0109083430485809,0.0092672747334671));
#673=CARTESIAN_POINT('',(-0.0537812261146407,0.0109083430485809,0.00737794352327601));
#674=VECTOR('',#820,0.999999999999999);
#675=CARTESIAN_POINT('',(-0.057244999999991,0.0199083430485809,0.00926727473346713));
#676=CARTESIAN_POINT('',(-0.0537812261146407,0.0199083430485809,0.00737794352327605));
#677=VECTOR('',#821,0.999999999999999);
#678=CARTESIAN_POINT('',(-0.057244999999991,0.0153364807508658,0.00926727473346707));
#679=VECTOR('',#822,1.0);
#680=CARTESIAN_POINT('',(-0.056494999999991,0.0109083430485809,0.0057672747334671));
#681=AXIS2_PLACEMENT_3D('',#823,#824,#825);
#682=CARTESIAN_POINT('',(-0.056494999999991,0.0199083430485809,0.00576727473346714));
#683=CARTESIAN_POINT('',(-0.056494999999991,0.015938343048581,0.00576727473346712));
#684=VECTOR('',#826,1.0);
#685=AXIS2_PLACEMENT_3D('',#827,#828,#829);
#686=CARTESIAN_POINT('',(-0.057289999999982,0.0199083430485809,0.00576727473346714));
#687=VECTOR('',#830,1.0);
#688=CARTESIAN_POINT('',(-0.057289999999982,0.0109083430485809,0.0057672747334671));
#689=VECTOR('',#831,1.0);
#690=CARTESIAN_POINT('',(-0.080244999999991,0.0109083430485809,0.0097672747334671));
#691=AXIS2_PLACEMENT_3D('',#832,#833,#834);
#692=CARTESIAN_POINT('',(-0.080244999999991,0.0199083430485809,0.00976727473346713));
#693=CARTESIAN_POINT('',(-0.080244999999991,0.0159383430485809,0.00976727473346712));
#694=VECTOR('',#835,1.0);
#695=AXIS2_PLACEMENT_3D('',#836,#837,#838);
#696=CARTESIAN_POINT('',(-0.080244999999991,0.0199083430485809,0.0157672747334671));
#697=VECTOR('',#839,1.0);
#698=CARTESIAN_POINT('',(-0.080244999999991,0.0109083430485809,0.017859651772553));
#699=VECTOR('',#840,1.0);
#700=CARTESIAN_POINT('',(-0.076244999999991,0.0109083430485809,0.027859651772553));
#701=AXIS2_PLACEMENT_3D('',#841,#842,#843);
#702=CARTESIAN_POINT('',(-0.076244999999991,0.0199083430485809,0.027859651772553));
#703=CARTESIAN_POINT('',(-0.076244999999991,0.0159383430485809,0.027859651772553));
#704=VECTOR('',#844,1.0);
#705=AXIS2_PLACEMENT_3D('',#845,#846,#847);
#706=CARTESIAN_POINT('',(-0.054744999999991,0.0109083430485809,0.027859651772553));
#707=VECTOR('',#848,1.0);
#708=CARTESIAN_POINT('',(-0.057289999999982,0.0199083430485809,0.027859651772553));
#709=VECTOR('',#849,1.0);
#710=CARTESIAN_POINT('',(-0.054494999999991,0.0109083430485809,0.025859651772553));
#711=AXIS2_PLACEMENT_3D('',#850,#851,#852);
#712=CARTESIAN_POINT('',(-0.054494999999991,0.0199083430485809,0.025859651772553));
#713=CARTESIAN_POINT('',(-0.054494999999991,0.0159383430485809,0.025859651772553));
#714=VECTOR('',#853,1.0);
#715=AXIS2_PLACEMENT_3D('',#854,#855,#856);
#716=CARTESIAN_POINT('',(-0.057244999999991,0.0109083430485809,0.024359651772553));
#717=CARTESIAN_POINT('',(-0.0537812261146407,0.0109083430485809,0.0262489829827441));
#718=VECTOR('',#857,1.0);
#719=CARTESIAN_POINT('',(-0.057244999999991,0.0199083430485809,0.024359651772553));
#720=CARTESIAN_POINT('',(-0.057244999999991,0.0156374118997233,0.024359651772553));
#721=VECTOR('',#858,1.0);
#722=CARTESIAN_POINT('',(-0.0537812261146407,0.0199083430485809,0.0262489829827441));
#723=VECTOR('',#859,1.0);
#724=CARTESIAN_POINT('',(-0.057244999999991,0.0199083430485809,0.025859651772553));
#725=CARTESIAN_POINT('',(-0.057244999999991,0.0199083430485809,0.0218134632530101));
#726=VECTOR('',#860,1.0);
#727=CARTESIAN_POINT('',(-0.057244999999991,0.0109083430485809,0.025859651772553));
#728=CARTESIAN_POINT('',(-0.057244999999991,0.0109083430485809,0.02181346325301));
#729=VECTOR('',#861,1.0);
#730=CARTESIAN_POINT('',(-0.057244999999991,0.0159383430485809,0.025859651772553));
#731=VECTOR('',#862,1.0);
#732=CARTESIAN_POINT('',(-0.076244999999991,0.0199083430485809,0.025859651772553));
#733=CARTESIAN_POINT('',(-0.057477499999982,0.0199083430485809,0.025859651772553));
#734=VECTOR('',#863,1.0);
#735=CARTESIAN_POINT('',(-0.076244999999991,0.0109083430485809,0.025859651772553));
#736=CARTESIAN_POINT('',(-0.057477499999982,0.0109083430485809,0.025859651772553));
#737=VECTOR('',#864,1.0);
#738=CARTESIAN_POINT('',(-0.076244999999991,0.0159383430485809,0.025859651772553));
#739=VECTOR('',#865,1.0);
#740=AXIS2_PLACEMENT_3D('',#866,#867,#868);
#741=AXIS2_PLACEMENT_3D('',#869,#870,#871);
#742=CARTESIAN_POINT('',(-0.078244999999991,0.0109083430485809,0.0097672747334671));
#743=CARTESIAN_POINT('',(-0.078244999999991,0.0109083430485809,0.017859651772553));
#744=VECTOR('',#872,1.0);
#745=CARTESIAN_POINT('',(-0.078244999999991,0.0199083430485809,0.00976727473346713));
#746=CARTESIAN_POINT('',(-0.078244999999991,0.0159383430485809,0.00976727473346712));
#747=VECTOR('',#873,1.0);
#748=CARTESIAN_POINT('',(-0.078244999999991,0.0199083430485809,0.017859651772553));
#749=VECTOR('',#874,1.0);
#750=AXIS2_PLACEMENT_3D('',#875,#876,#877);
#751=AXIS2_PLACEMENT_3D('',#878,#879,#880);
#752=CARTESIAN_POINT('',(-0.064744999999991,0.0109083430485809,0.0077672747334671));
#753=CARTESIAN_POINT('',(-0.064744999999991,0.0199083430485809,0.00776727473346713));
#754=CARTESIAN_POINT('',(-0.064744999999991,0.0153364807508659,0.00776727473346713));
#755=VECTOR('',#881,1.0);
#756=CARTESIAN_POINT('',(-0.051932499999991,0.0199083430485809,0.00776727473346713));
#757=VECTOR('',#882,1.0);
#758=CARTESIAN_POINT('',(-0.060477499999982,0.0109083430485809,0.0077672747334671));
#759=VECTOR('',#883,1.0);
#760=CARTESIAN_POINT('',(-0.064744999999991,0.0109083430485809,0.0128134632530101));
#761=VECTOR('',#884,1.0);
#762=CARTESIAN_POINT('',(-0.064744999999991,0.0199083430485809,0.0128134632530101));
#763=VECTOR('',#885,1.0);
#764=CARTESIAN_POINT('',(-0.057244999999991,0.0199083430485809,0.0218134632530101));
#765=VECTOR('',#886,1.0);
#766=CARTESIAN_POINT('',(-0.057244999999991,0.0109083430485809,0.01281346325301));
#767=VECTOR('',#887,1.0);
#768=DIRECTION('',(-2.46519032881566E-32,1.0,3.8372083288607E-15));
#769=CARTESIAN_POINT('',(-0.076244999999991,0.0109083430485809,0.0097672747334671));
#770=DIRECTION('',(3.76158192263132E-31,-1.0,-3.8372083288607E-15));
#771=DIRECTION('',(-0.707106781186548,2.7133160301629E-15,-0.707106781186547));
#772=DIRECTION('',(-2.46519032881566E-32,1.0,3.8372083288607E-15));
#773=CARTESIAN_POINT('',(-0.076244999999991,0.0199083430485809,0.00976727473346713));
#774=DIRECTION('',(-3.76158192263132E-31,1.0,3.8372083288607E-15));
#775=DIRECTION('',(-0.707106781186548,2.7133160301629E-15,-0.707106781186547));
#776=DIRECTION('',(-2.46519032881566E-32,1.0,3.8372083288607E-15));
#777=CARTESIAN_POINT('',(-0.076244999999991,0.0109083430485809,0.023859651772553));
#778=DIRECTION('',(0.0,-1.0,-3.8372083288607E-15));
#779=DIRECTION('',(-0.707106781186547,-2.7133160301629E-15,0.707106781186548));
#780=DIRECTION('',(-2.46519032881566E-32,1.0,3.8372083288607E-15));
#781=CARTESIAN_POINT('',(-0.076244999999991,0.0199083430485809,0.023859651772553));
#782=DIRECTION('',(0.0,1.0,3.8372083288607E-15));
#783=DIRECTION('',(-0.707106781186547,-2.7133160301629E-15,0.707106781186548));
#784=DIRECTION('',(2.46519032881566E-32,-1.0,-3.8372083288607E-15));
#785=CARTESIAN_POINT('',(-0.056494999999991,0.0199083430485809,0.025859651772553));
#786=DIRECTION('',(3.76158192263132E-31,-1.0,-3.8372083288607E-15));
#787=DIRECTION('',(0.707106781186547,-2.7133160301629E-15,0.707106781186547));
#788=DIRECTION('',(2.46519032881566E-32,-1.0,-3.8372083288607E-15));
#789=CARTESIAN_POINT('',(-0.056494999999991,0.0109083430485809,0.025859651772553));
#790=DIRECTION('',(-3.76158192263132E-31,1.0,3.8372083288607E-15));
#791=DIRECTION('',(0.707106781186547,-2.7133160301629E-15,0.707106781186547));
#792=DIRECTION('',(2.46519032881566E-32,-1.0,-3.8372083288607E-15));
#793=CARTESIAN_POINT('',(-0.076244999999991,0.0199083430485809,0.023859651772553));
#794=DIRECTION('',(0.0,-1.0,-3.8372083288607E-15));
#795=DIRECTION('',(-0.707106781186548,-2.7133160301629E-15,0.707106781186547));
#796=DIRECTION('',(2.46519032881566E-32,-1.0,-3.8372083288607E-15));
#797=CARTESIAN_POINT('',(-0.076244999999991,0.0109083430485809,0.023859651772553));
#798=DIRECTION('',(0.0,1.0,3.8372083288607E-15));
#799=DIRECTION('',(-0.707106781186548,-2.7133160301629E-15,0.707106781186547));
#800=DIRECTION('',(2.46519032881566E-32,-1.0,-3.8372083288607E-15));
#801=CARTESIAN_POINT('',(-0.076244999999991,0.0199083430485809,0.00976727473346713));
#802=DIRECTION('',(3.76158192263132E-31,-1.0,-3.8372083288607E-15));
#803=DIRECTION('',(-0.707106781186548,2.7133160301629E-15,-0.707106781186547));
#804=DIRECTION('',(2.46519032881566E-32,-1.0,-3.8372083288607E-15));
#805=CARTESIAN_POINT('',(-0.076244999999991,0.0109083430485809,0.0097672747334671));
#806=DIRECTION('',(-3.76158192263132E-31,1.0,3.8372083288607E-15));
#807=DIRECTION('',(-0.707106781186548,2.7133160301629E-15,-0.707106781186547));
#808=DIRECTION('',(2.46519032881566E-32,-1.0,-3.8372083288607E-15));
#809=CARTESIAN_POINT('',(-0.056494999999991,0.0199083430485809,0.00776727473346713));
#810=DIRECTION('',(0.0,-1.0,-3.8372083288607E-15));
#811=DIRECTION('',(0.707106781186548,2.7133160301629E-15,-0.707106781186547));
#812=DIRECTION('',(2.46519032881566E-32,-1.0,-3.8372083288607E-15));
#813=CARTESIAN_POINT('',(-0.056494999999991,0.0109083430485809,0.0077672747334671));
#814=DIRECTION('',(0.0,1.0,3.8372083288607E-15));
#815=DIRECTION('',(0.707106781186548,2.7133160301629E-15,-0.707106781186547));
#816=DIRECTION('',(-1.0,-1.09932081225623E-30,2.8327492261615E-16));
#817=DIRECTION('',(1.59565718992603E-15,1.0,3.8372083288607E-15));
#818=DIRECTION('',(1.0,1.09932081225623E-30,-2.8327492261615E-16));
#819=DIRECTION('',(-1.59565718992603E-15,-1.0,-3.8372083288607E-15));
#820=DIRECTION('',(-0.877895572914384,-1.87350135405495E-15,0.478852130680573));
#821=DIRECTION('',(-0.877895572914384,-1.87350135405495E-15,0.478852130680573));
#822=DIRECTION('',(-1.59565718992603E-15,-1.0,-3.8372083288607E-15));
#823=CARTESIAN_POINT('',(-0.056494999999991,0.0109083430485809,0.0077672747334671));
#824=DIRECTION('',(0.0,1.0,3.8372083288607E-15));
#825=DIRECTION('',(0.707106781186548,2.7133160301629E-15,-0.707106781186547));
#826=DIRECTION('',(-2.46519032881566E-32,1.0,3.8372083288607E-15));
#827=CARTESIAN_POINT('',(-0.056494999999991,0.0199083430485809,0.00776727473346713));
#828=DIRECTION('',(0.0,-1.0,-3.8372083288607E-15));
#829=DIRECTION('',(0.707106781186548,2.7133160301629E-15,-0.707106781186547));
#830=DIRECTION('',(1.0,4.27171261665089E-31,-1.020425574104E-16));
#831=DIRECTION('',(1.0,4.27171261665089E-31,-1.020425574104E-16));
#832=CARTESIAN_POINT('',(-0.076244999999991,0.0109083430485809,0.0097672747334671));
#833=DIRECTION('',(-3.76158192263132E-31,1.0,3.8372083288607E-15));
#834=DIRECTION('',(-0.707106781186548,2.7133160301629E-15,-0.707106781186547));
#835=DIRECTION('',(-2.46519032881566E-32,1.0,3.8372083288607E-15));
#836=CARTESIAN_POINT('',(-0.076244999999991,0.0199083430485809,0.00976727473346713));
#837=DIRECTION('',(3.76158192263132E-31,-1.0,-3.8372083288607E-15));
#838=DIRECTION('',(-0.707106781186548,2.7133160301629E-15,-0.707106781186547));
#839=DIRECTION('',(-4.26983489983615E-32,-3.8372083288607E-15,1.0));
#840=DIRECTION('',(-4.26983489983615E-32,-3.8372083288607E-15,1.0));
#841=CARTESIAN_POINT('',(-0.076244999999991,0.0109083430485809,0.023859651772553));
#842=DIRECTION('',(0.0,1.0,3.8372083288607E-15));
#843=DIRECTION('',(-0.707106781186548,-2.7133160301629E-15,0.707106781186547));
#844=DIRECTION('',(-2.46519032881566E-32,1.0,3.8372083288607E-15));
#845=CARTESIAN_POINT('',(-0.076244999999991,0.0199083430485809,0.023859651772553));
#846=DIRECTION('',(0.0,-1.0,-3.8372083288607E-15));
#847=DIRECTION('',(-0.707106781186548,-2.7133160301629E-15,0.707106781186547));
#848=DIRECTION('',(-1.0,-2.46519032881564E-32,-4.26983489983616E-32));
#849=DIRECTION('',(-1.0,-2.46519032881564E-32,-4.26983489983616E-32));
#850=CARTESIAN_POINT('',(-0.056494999999991,0.0109083430485809,0.025859651772553));
#851=DIRECTION('',(-3.76158192263132E-31,1.0,3.8372083288607E-15));
#852=DIRECTION('',(0.707106781186547,-2.7133160301629E-15,0.707106781186547));
#853=DIRECTION('',(2.46519032881566E-32,-1.0,-3.8372083288607E-15));
#854=CARTESIAN_POINT('',(-0.056494999999991,0.0199083430485809,0.025859651772553));
#855=DIRECTION('',(3.76158192263132E-31,-1.0,-3.8372083288607E-15));
#856=DIRECTION('',(0.707106781186547,-2.7133160301629E-15,0.707106781186547));
#857=DIRECTION('',(0.877895572914384,-1.82319437325162E-15,0.478852130680574));
#858=DIRECTION('',(-1.59565718992603E-15,-1.0,-4.66987559732956E-15));
#859=DIRECTION('',(0.877895572914384,-1.82319437325162E-15,0.478852130680574));
#860=DIRECTION('',(-2.8327492261615E-16,3.8372083288607E-15,-1.0));
#861=DIRECTION('',(2.8327492261615E-16,-3.8372083288607E-15,1.0));
#862=DIRECTION('',(2.46519032881566E-32,-1.0,-3.8372083288607E-15));
#863=DIRECTION('',(1.0,2.46519032881564E-32,4.26983489983616E-32));
#864=DIRECTION('',(1.0,2.46519032881564E-32,4.26983489983616E-32));
#865=DIRECTION('',(2.46519032881566E-32,-1.0,-3.8372083288607E-15));
#866=CARTESIAN_POINT('',(-0.076244999999991,0.0199083430485809,0.023859651772553));
#867=DIRECTION('',(0.0,1.0,3.8372083288607E-15));
#868=DIRECTION('',(-0.707106781186547,-2.7133160301629E-15,0.707106781186548));
#869=CARTESIAN_POINT('',(-0.076244999999991,0.0109083430485809,0.023859651772553));
#870=DIRECTION('',(0.0,-1.0,-3.8372083288607E-15));
#871=DIRECTION('',(-0.707106781186547,-2.7133160301629E-15,0.707106781186548));
#872=DIRECTION('',(4.26983489983615E-32,3.8372083288607E-15,-1.0));
#873=DIRECTION('',(2.46519032881566E-32,-1.0,-3.8372083288607E-15));
#874=DIRECTION('',(4.26983489983615E-32,3.8372083288607E-15,-1.0));
#875=CARTESIAN_POINT('',(-0.076244999999991,0.0199083430485809,0.00976727473346713));
#876=DIRECTION('',(-3.76158192263132E-31,1.0,3.8372083288607E-15));
#877=DIRECTION('',(-0.707106781186548,2.7133160301629E-15,-0.707106781186547));
#878=CARTESIAN_POINT('',(-0.076244999999991,0.0109083430485809,0.0097672747334671));
#879=DIRECTION('',(3.76158192263132E-31,-1.0,-3.8372083288607E-15));
#880=DIRECTION('',(-0.707106781186548,2.7133160301629E-15,-0.707106781186547));
#881=DIRECTION('',(-1.59565718992603E-15,-1.0,-3.8372083288607E-15));
#882=DIRECTION('',(-1.0,-2.46519032881564E-32,-4.26983489983616E-32));
#883=DIRECTION('',(-1.0,-2.46519032881564E-32,-4.26983489983616E-32));
#884=DIRECTION('',(2.8327492261615E-16,-3.8372083288607E-15,1.0));
#885=DIRECTION('',(-2.8327492261615E-16,3.8372083288607E-15,-1.0));
#886=DIRECTION('',(-2.8327492261615E-16,3.8372083288607E-15,-1.0));
#887=DIRECTION('',(-2.8327492261615E-16,3.8372083288607E-15,-1.0));
#888=PRESENTATION_LAYER_ASSIGNMENT('9','Calque0',(#25));
ENDSEC;
END-ISO-10303-21;
